# xmcd
#
# Track frame offsets:
#	23629
#	25169
#	52322
#	56052
#	74912
#	84019
#	87524
#	106434
#	109147
#	126964
#	136947
#	160204
#	184407
#	215974
#	218047
#	234967
#	238797
#	242669
#	263317
#	264704
#	281817
#	289627
#	308299
#	310232
#	335469
#	336537
#
# Disc length: 4576 seconds
#
# Revision: 2
# Processed by: cddbd v1.5.2PL0 Copyright (c) Steve Scherf et al.
# Submitted via: EZCDAudioConverter 2.1.7.1
#
DISCID=9910a51a
DTITLE=V/A - Offbeat: A Red Hot Sound Trip
DYEAR=1996
DGENRE=
TTITLE0=Skylab - Intro - Transnational Lullabye
TTITLE1=DJ Krush - Ryu-Ki
TTITLE2=Interlude
TTITLE3=Laika - Looking For The Jackalope
TTITLE4=Christian McBride and DJ Krazy - Krazy Groove
TTITLE5=Interlude
TTITLE6=Amiri Baraka and DJ Spooky - Black Dada Nihilismus
TTITLE7=Interlude
TTITLE8=Tomandandy - Cartridgemusic
TTITLE9=Skylab - Rain Rain/The Phone Call
TTITLE10=Soul Coughing - Murder Of Lawyers
TTITLE11=Meat Beat Manifesto - I Control (Audio Collage #2)
TTITLE12=Barry Adamson - Hip No Therapy
TTITLE13=Interlude
TTITLE14=David Byrne - It Goes Back
TTITLE15=Interlude
TTITLE16=Mark Eitzel and My Bloody Valentine - Incidental One
TTITLE17=Tortoise and Jeff Parker - Wait
TTITLE18=Interlude
TTITLE19=Emergency Broadcast Network - Characteristic Beat
TTITLE20=Spookey Ruben - Pinball/Visions Of Rotterdam
TTITLE21=DJ Spooky - Temporally Displaced
TTITLE22=Interlude
TTITLE23=My Bloody Valentine and Skylab - Incidental Peace
TTITLE24=Interlude
TTITLE25=Moby - Republican Party
EXTD=
EXTT0=
EXTT1=
EXTT2=
EXTT3=
EXTT4=
EXTT5=
EXTT6=
EXTT7=
EXTT8=
EXTT9=
EXTT10=
EXTT11=
EXTT12=
EXTT13=
EXTT14=
EXTT15=
EXTT16=
EXTT17=
EXTT18=
EXTT19=
EXTT20=
EXTT21=
EXTT22=
EXTT23=
EXTT24=
EXTT25=
PLAYORDER=
